HIERARCHY
ROOT hip
{
  OFFSET 0 0 0
  CHANNELS 6 Xposition Yposition Zposition Zrotation Yrotation Xrotation
  JOINT abdomen
  {
    OFFSET 0 20.6881 -0.73152
    CHANNELS 3 Zrotation Xrotation Yrotation
    JOINT chest
    {
      OFFSET 0 11.7043 -0.48768
      CHANNELS 3 Zrotation Xrotation Yrotation
      JOINT neck
      {
        OFFSET 0 22.1894 -2.19456
        CHANNELS 3 Zrotation Xrotation Yrotation
        JOINT head
        {
          OFFSET -0.24384 7.07133 1.2192
          CHANNELS 3 Zrotation Xrotation Yrotation
          JOINT leftEye
          {
            OFFSET 4.14528 8.04674 8.04672
            CHANNELS 3 Zrotation Xrotation Yrotation
            End Site
            {
              OFFSET 1 0 0
            }
          }
          JOINT rightEye
          {
            OFFSET -3.6576 8.04674 8.04672
            CHANNELS 3 Zrotation Xrotation Yrotation
            End Site
            {
              OFFSET 1 0 0
            }
          }
        }
      }
      JOINT rCollar
      {
        OFFSET -2.68224 19.2634 -4.8768
        CHANNELS 3 Zrotation Xrotation Yrotation
        JOINT rShldr
        {
          OFFSET -8.77824 -1.95073 1.46304
          CHANNELS 3 Zrotation Xrotation Yrotation
          JOINT rForeArm
          {
            OFFSET -28.1742 -1.7115 0.48768
            CHANNELS 3 Zrotation Xrotation Yrotation
            JOINT rHand
            {
              OFFSET -22.5879 0.773209 7.07136
              CHANNELS 3 Zrotation Xrotation Yrotation
              JOINT rThumb1
              {
                OFFSET -1.2192 -0.487915 3.41376
                CHANNELS 3 Zrotation Xrotation Yrotation
                JOINT rThumb2
                {
                  OFFSET -3.37035 -0.52449 3.41376
                  CHANNELS 3 Zrotation Xrotation Yrotation
                  End Site
                  {
                    OFFSET -1.78271 -1.18214 1.43049
                  }
                }
              }
              JOINT rIndex1
              {
                OFFSET -7.75947 0.938293 5.60832
                CHANNELS 3 Zrotation Xrotation Yrotation
                JOINT rIndex2
                {
                  OFFSET -2.54057 -0.884171 1.56538
                  CHANNELS 3 Zrotation Xrotation Yrotation
                  End Site
                  {
                    OFFSET -1.62519 -0.234802 1.16502
                  }
                }
              }
              JOINT rMid1
              {
                OFFSET -8.24714 1.18213 3.41376
                CHANNELS 3 Zrotation Xrotation Yrotation
                JOINT rMid2
                {
                  OFFSET -3.10165 -0.590103 1.0647
                  CHANNELS 3 Zrotation Xrotation Yrotation
                  End Site
                  {
                    OFFSET -2.48547 -0.328903 0.83742
                  }
                }
              }
              JOINT rRing1
              {
                OFFSET -8.82822 0.546677 1.51678
                CHANNELS 3 Zrotation Xrotation Yrotation
                JOINT rRing2
                {
                  OFFSET -2.60934 -0.819778 -0.0198488
                  CHANNELS 3 Zrotation Xrotation Yrotation
                  End Site
                  {
                    OFFSET -2.33842 -0.294052 0.168128
                  }
                }
              }
              JOINT rPinky1
              {
                OFFSET -8.27202 -0.0477905 -0.4584
                CHANNELS 3 Zrotation Xrotation Yrotation
                JOINT rPinky2
                {
                  OFFSET -1.82734 -0.647385 -0.700984
                  CHANNELS 3 Zrotation Xrotation Yrotation
                  End Site
                  {
                    OFFSET -1.69225 -0.51767 -0.607171
                  }
                }
              }
            }
          }
        }
      }
      JOINT lCollar
      {
        OFFSET 2.68224 19.2634 -4.8768
        CHANNELS 3 Zrotation Xrotation Yrotation
        JOINT lShldr
        {
          OFFSET 8.77824 -1.95073 1.46304
          CHANNELS 3 Zrotation Xrotation Yrotation
          JOINT lForeArm
          {
            OFFSET 28.1742 -1.7115 0.48768
            CHANNELS 3 Zrotation Xrotation Yrotation
            JOINT lHand
            {
              OFFSET 22.5879 0.773209 7.07136
              CHANNELS 3 Zrotation Xrotation Yrotation
              JOINT lThumb1
              {
                OFFSET 1.2192 -0.487915 3.41376
                CHANNELS 3 Zrotation Xrotation Yrotation
                JOINT lThumb2
                {
                  OFFSET 3.37035 -0.52449 3.41376
                  CHANNELS 3 Zrotation Xrotation Yrotation
                  End Site
                  {
                    OFFSET 1.78271 -1.18214 1.43049
                  }
                }
              }
              JOINT lIndex1
              {
                OFFSET 7.75947 0.938293 5.60832
                CHANNELS 3 Zrotation Xrotation Yrotation
                JOINT lIndex2
                {
                  OFFSET 2.54057 -0.884171 1.56538
                  CHANNELS 3 Zrotation Xrotation Yrotation
                  End Site
                  {
                    OFFSET 1.62519 -0.234802 1.16502
                  }
                }
              }
              JOINT lMid1
              {
                OFFSET 8.24714 1.18213 3.41376
                CHANNELS 3 Zrotation Xrotation Yrotation
                JOINT lMid2
                {
                  OFFSET 3.10165 -0.590103 1.0647
                  CHANNELS 3 Zrotation Xrotation Yrotation
                  End Site
                  {
                    OFFSET 2.48547 -0.328903 0.83742
                  }
                }
              }
              JOINT lRing1
              {
                OFFSET 8.82822 0.546677 1.51678
                CHANNELS 3 Zrotation Xrotation Yrotation
                JOINT lRing2
                {
                  OFFSET 2.60934 -0.819778 -0.0198488
                  CHANNELS 3 Zrotation Xrotation Yrotation
                  End Site
                  {
                    OFFSET 2.33842 -0.294052 0.168128
                  }
                }
              }
              JOINT lPinky1
              {
                OFFSET 8.27202 -0.0477905 -0.4584
                CHANNELS 3 Zrotation Xrotation Yrotation
                JOINT lPinky2
                {
                  OFFSET 1.82734 -0.647385 -0.700984
                  CHANNELS 3 Zrotation Xrotation Yrotation
                  End Site
                  {
                    OFFSET 1.69225 -0.51767 -0.607171
                  }
                }
              }
            }
          }
        }
      }
    }
  }
  JOINT rButtock
  {
    OFFSET -8.77824 4.35084 1.2192
    CHANNELS 3 Zrotation Xrotation Yrotation
    JOINT rThigh
    {
      OFFSET 0 -1.70687 -2.19456
      CHANNELS 3 Zrotation Xrotation Yrotation
      JOINT rShin
      {
        OFFSET 0 -36.8199 0.73152
        CHANNELS 3 Zrotation Xrotation Yrotation
        JOINT rFoot
        {
          OFFSET 0.73152 -45.1104 -5.12064
          CHANNELS 3 Zrotation Xrotation Yrotation
          End Site
          {
            OFFSET -1.1221 -3.69964 12.103
          }
        }
      }
    }
  }
  JOINT lButtock
  {
    OFFSET 8.77824 4.35084 1.2192
    CHANNELS 3 Zrotation Xrotation Yrotation
    JOINT lThigh
    {
      OFFSET 0 -1.70687 -2.19456
      CHANNELS 3 Zrotation Xrotation Yrotation
      JOINT lShin
      {
        OFFSET 0 -36.8199 0.73152
        CHANNELS 3 Zrotation Xrotation Yrotation
        JOINT lFoot
        {
          OFFSET -0.73152 -45.1104 -5.12064
          CHANNELS 3 Zrotation Xrotation Yrotation
          End Site
          {
            OFFSET 1.1221 -3.69964 12.103
          }
        }
      }
    }
  }
}
MOTION
Frames:	6
Frame Time:	0.00833333
-59.2904 83.6396 -0.213389 -488.273 -79.1881 479.501 1.12081 19.4007 7.3112 -1.16598 -1.12559 1.88023 7.44967 9.59431 0.984082 -5.07798 -1.70902 0.0768193 -0.0 0.0 0.0 -0.0 0.0 0.0 4.25559e-13 -5.83631e-13 -2.1272e-13 73.4723 30.1072 -5.45852 -21.9689 -15.7111 43.7036 -0.0738192 7.72803 1.09281 2.58504e-09 4.9698e-10 -4.28472e-09 4.45107e-09 8.53581e-10 -7.41379e-09 2.58505e-09 4.96982e-10 -4.28473e-09 7.73091 5.47488 0.417314 2.58504e-09 4.96984e-10 -4.28472e-09 2.90554 0.965183 0.102902 2.58505e-09 4.96983e-10 -4.28472e-09 10.2786 0.731801 0.0259123 2.58504e-09 4.96983e-10 -4.28471e-09 2.22167 -0.733487 -0.20892 4.25415e-13 -5.83636e-13 -2.12864e-13 -75.4925 26.4996 11.7899 25.1005 -21.3133 -53.3073 0.0236956 -4.38798 0.617912 -5.33356e-09 7.054e-09 7.78502e-09 -9.25003e-09 1.21839e-08 1.34283e-08 -5.33357e-09 7.05401e-09 7.78504e-09 -7.73091 5.47488 -0.417314 -5.33356e-09 7.054e-09 7.78502e-09 -2.90554 0.965183 -0.102902 -5.33357e-09 7.054e-09 7.78502e-09 -10.2786 0.731801 -0.0259123 -5.33355e-09 7.054e-09 7.78501e-09 -2.22167 -0.733487 0.20892 -2.03217e-16 0.0 -3.88251e-19 3.03424 -1.17508 1.43944 -0.125642 25.3653 0.457554 -4.16893 -11.9094 -11.646 2.03217e-16 0.0 3.88251e-19 13.4873 -6.61979 9.29517 0.32852 41.8206 -0.950532 5.63501 -20.9432 10.7296
-59.4946 83.622 -0.58318 -489.243 -78.4477 480.092 1.72437 19.2359 7.33546 -1.12318 -1.02423 1.92139 7.63533 9.66352 1.08235 -4.97491 -1.52859 0.239072 -0.0 0.0 0.0 -0.0 0.0 0.0 3.7798e-13 3.10472e-12 3.62005e-14 73.3368 31.1206 -5.19467 -22.1717 -16.0173 44.2572 -0.0692298 7.48665 1.05827 1.98454e-09 4.36657e-10 -4.06014e-09 3.41402e-09 7.49319e-10 -7.02096e-09 1.98454e-09 4.36658e-10 -4.06015e-09 7.73091 5.47488 0.417314 1.98454e-09 4.3666e-10 -4.06014e-09 2.90554 0.965183 0.102902 1.98455e-09 4.36659e-10 -4.06014e-09 10.2786 0.731801 0.0259123 1.98453e-09 4.3666e-10 -4.06013e-09 2.22167 -0.733487 -0.20892 3.77799e-13 3.10472e-12 3.60763e-14 -75.7579 26.5623 12.1312 25.191 -21.5121 -53.6345 0.0229278 -4.31675 0.607843 -4.96858e-09 6.51971e-09 6.64092e-09 -8.6157e-09 1.12655e-08 1.14578e-08 -4.96859e-09 6.51971e-09 6.64094e-09 -7.73091 5.47488 -0.417314 -4.96858e-09 6.5197e-09 6.64092e-09 -2.90554 0.965183 -0.102902 -4.96858e-09 6.5197e-09 6.64092e-09 -10.2786 0.731801 -0.0259123 -4.96857e-09 6.51971e-09 6.64091e-09 -2.22167 -0.733487 0.20892 -2.03217e-16 0.0 -3.88251e-19 3.59056 -0.553014 1.2066 -0.122862 25.0992 0.445402 -3.94258 -11.9647 -10.9333 2.03217e-16 0.0 3.88251e-19 14.2499 -6.06326 9.15176 0.334815 42.081 -0.95917 5.66733 -21.1456 10.6993
-59.7172 83.6029 -0.925322 -490.065 -77.7786 480.513 2.30945 19.0588 7.32091 -1.07066 -0.909339 1.94971 7.80873 9.73387 1.17932 -4.85365 -1.30969 0.398331 -0.0 0.0 0.0 -0.0 0.0 0.0 3.24538e-13 6.73806e-12 2.9218e-13 73.1946 32.1114 -4.95664 -22.3815 -16.3405 44.8367 -0.0649458 7.25354 1.02495 1.11696e-09 3.03939e-10 -3.64859e-09 1.91601e-09 5.19906e-10 -6.30405e-09 1.11696e-09 3.03939e-10 -3.64859e-09 7.73091 5.47488 0.417314 1.11695e-09 3.03941e-10 -3.64859e-09 2.90554 0.965183 0.102902 1.11696e-09 3.03939e-10 -3.64859e-09 10.2786 0.731801 0.0259123 1.11695e-09 3.03941e-10 -3.64858e-09 2.22167 -0.733487 -0.20892 3.24318e-13 6.73807e-12 2.92075e-13 -76.0112 26.6893 12.4577 25.2811 -21.7129 -53.9644 0.0223108 -4.25976 0.599787 -4.37448e-09 5.51557e-09 4.98228e-09 -7.58302e-09 9.5353e-09 8.5991e-09 -4.37448e-09 5.51557e-09 4.98229e-09 -7.73091 5.47488 -0.417314 -4.37448e-09 5.51557e-09 4.98228e-09 -2.90554 0.965183 -0.102902 -4.37448e-09 5.51556e-09 4.98228e-09 -10.2786 0.731801 -0.0259123 -4.37447e-09 5.51557e-09 4.98227e-09 -2.22167 -0.733487 0.20892 -2.03217e-16 0.0 -3.88251e-19 4.10714 0.0969606 0.961786 -0.120304 24.8462 0.434148 -3.72814 -12.0396 -10.2427 2.03217e-16 0.0 3.88251e-19 14.9189 -5.44868 8.9307 0.339167 42.2691 -0.967579 5.74803 -21.3564 10.771
-59.9574 83.5814 -1.23825 -490.782 -77.1836 480.812 2.83593 18.8511 7.27791 -1.01751 -0.779153 1.9658 7.96102 9.80523 1.27097 -4.72159 -1.05764 0.547073 -0.0 0.0 0.0 -0.0 0.0 0.0 3.01517e-13 8.75224e-12 4.49204e-13 73.0626 33.0474 -4.75915 -22.5987 -16.6834 45.4398 -0.0610297 7.03174 0.993288 2.51981e-10 1.3108e-10 -3.22009e-09 4.22645e-10 2.21255e-10 -5.55903e-09 2.51983e-10 1.3108e-10 -3.2201e-09 7.73091 5.47488 0.417314 2.5198e-10 1.31082e-10 -3.22009e-09 2.90554 0.965183 0.102902 2.51988e-10 1.3108e-10 -3.22009e-09 10.2786 0.731801 0.0259123 2.51978e-10 1.31082e-10 -3.22009e-09 2.22167 -0.733487 -0.20892 3.01268e-13 8.75224e-12 4.49104e-13 -76.2328 26.9063 12.7576 25.3709 -21.9159 -54.2966 0.0217888 -4.21015 0.592776 -3.87639e-09 4.43909e-09 3.44558e-09 -6.71624e-09 7.67795e-09 5.94873e-09 -3.8764e-09 4.43909e-09 3.44558e-09 -7.73091 5.47488 -0.417314 -3.87639e-09 4.43909e-09 3.44558e-09 -2.90554 0.965183 -0.102902 -3.8764e-09 4.43909e-09 3.44558e-09 -10.2786 0.731801 -0.0259123 -3.87639e-09 4.4391e-09 3.44557e-09 -2.22167 -0.733487 0.20892 -2.03217e-16 0.0 -3.88251e-19 4.53419 0.741266 0.71843 -0.118323 24.6338 0.424599 -3.52952 -12.1437 -9.58347 2.03217e-16 0.0 3.88251e-19 15.4267 -4.78822 8.63054 0.341044 42.3697 -0.976226 5.89008 -21.5707 10.9706
-60.2123 83.5564 -1.51698 -491.457 -76.6765 481.061 3.26523 18.6187 7.20126 -0.954798 -0.63348 1.96623 8.08733 9.87203 1.3577 -4.56797 -0.755369 0.685361 -0.0 0.0 0.0 -0.0 0.0 0.0 3.41574e-13 8.70804e-12 4.84639e-13 72.9442 33.9276 -4.602 -22.8205 -17.0414 46.0669 -0.0577313 6.83606 0.965386 -7.81157e-10 -1.44317e-10 -2.82163e-09 -1.36138e-09 -2.54539e-10 -4.867e-09 -7.81156e-10 -1.44318e-10 -2.82164e-09 7.73091 5.47488 0.417314 -7.81159e-10 -1.44316e-10 -2.82163e-09 2.90554 0.965183 0.102902 -7.81151e-10 -1.44317e-10 -2.82163e-09 10.2786 0.731801 0.0259123 -7.8116e-10 -1.44315e-10 -2.82163e-09 2.22167 -0.733487 -0.20892 3.41302e-13 8.70805e-12 4.84524e-13 -76.4247 27.225 13.0357 25.4586 -22.1172 -54.6265 0.0214532 -4.1766 0.588036 -3.5979e-09 3.15057e-09 1.90701e-09 -6.22822e-09 5.45109e-09 3.29161e-09 -3.5979e-09 3.15057e-09 1.90701e-09 -7.73091 5.47488 -0.417314 -3.5979e-09 3.15057e-09 1.90701e-09 -2.90554 0.965183 -0.102902 -3.5979e-09 3.15057e-09 1.90701e-09 -10.2786 0.731801 -0.0259123 -3.59789e-09 3.15058e-09 1.907e-09 -2.22167 -0.733487 0.20892 -2.03217e-16 0.0 -3.88251e-19 4.83696 1.38851 0.472149 -0.117 24.4723 0.417145 -3.34806 -12.2927 -8.9532 2.03217e-16 0.0 3.88251e-19 15.7286 -4.06098 8.21989 0.339716 42.3615 -0.984927 6.10643 -21.7927 11.3213
-60.4785 83.5292 -1.76697 -492.099 -76.2327 481.281 3.62719 18.3675 7.08839 -0.881302 -0.473159 1.9519 8.19325 9.93619 1.44117 -4.39347 -0.406218 0.816538 -0.0 0.0 0.0 -0.0 0.0 0.0 4.17698e-13 7.44706e-12 4.53148e-13 72.8348 34.7665 -4.48051 -23.0454 -17.4122 46.7201 -0.0548431 6.66022 0.940329 -2.0454e-09 -5.1579e-10 -2.36199e-09 -3.54456e-09 -8.96359e-10 -4.06939e-09 -2.0454e-09 -5.15791e-10 -2.36199e-09 7.73091 5.47488 0.417314 -2.0454e-09 -5.15788e-10 -2.36198e-09 2.90554 0.965183 0.102902 -2.04539e-09 -5.15788e-10 -2.36199e-09 10.2786 0.731801 0.0259123 -2.0454e-09 -5.15786e-10 -2.36198e-09 2.22167 -0.733487 -0.20892 4.17405e-13 7.44706e-12 4.53005e-13 -76.5973 27.63 13.297 25.5447 -22.318 -54.9558 0.0212826 -4.15926 0.585587 -3.35329e-09 1.51991e-09 1.24959e-10 -5.79721e-09 2.63121e-09 2.12111e-10 -3.35329e-09 1.51991e-09 1.2496e-10 -7.73091 5.47488 -0.417314 -3.35329e-09 1.51991e-09 1.24957e-10 -2.90554 0.965183 -0.102902 -3.35329e-09 1.5199e-09 1.24955e-10 -10.2786 0.731801 -0.0259123 -3.35328e-09 1.51991e-09 1.24949e-10 -2.22167 -0.733487 0.20892 -2.03217e-16 0.0 -3.88251e-19 5.04982 2.0507 0.218269 -0.116091 24.3461 0.411269 -3.17974 -12.4777 -8.3483 2.03217e-16 0.0 3.88251e-19 15.8777 -3.26719 7.71083 0.335561 42.2583 -0.993459 6.39021 -22.0216 11.805
